<?xml version="1.0" encoding="UTF-8"?>
<svg width="24px" height="26px" viewBox="0 0 24 26" version="1.1" xmlns="http://www.w3.org/2000/svg" xmlns:xlink="http://www.w3.org/1999/xlink">
    <!-- Generator: Sketch 52.2 (67145) - http://www.bohemiancoding.com/sketch -->
    <title>img_kejian_zmg</title>
    <desc>Created with Sketch.</desc>
    <defs>
        <path d="M2,0 L17.3470104,1.11022302e-15 C17.6665043,1.05153295e-15 17.9728078,0.127407814 18.1980527,0.353993475 L23.6510423,5.83944134 C23.8745474,6.06427683 24,6.3684218 24,6.68544786 L24,24 C24,25.1045695 23.1045695,26 22,26 L2,26 C0.8954305,26 1.3527075e-16,25.1045695 0,24 L0,2 C-1.3527075e-16,0.8954305 0.8954305,2.02906125e-16 2,0 Z" id="path-1"></path>
    </defs>
    <g id="Page-1" stroke="none" stroke-width="1" fill="none" fill-rule="evenodd">
        <g id="切图" transform="translate(-98.000000, -31.000000)">
            <g id="img/课件/zmg" transform="translate(98.000000, 31.000000)">
                <g id="img/课件/zml">
                    <g id="Rectangle-6-Copy-3">
                        <mask id="mask-2" fill="white">
                            <use xlink:href="#path-1"></use>
                        </mask>
                        <use id="Mask" fill="#43CE71" xlink:href="#path-1"></use>
                        <path d="M18.2,-2 L25.4,-2 C25.7313708,-2 26,-1.73137085 26,-1.4 L26,6.4 C26,6.73137085 25.7313708,7 25.4,7 L18.2,7 C17.5372583,7 17,6.4627417 17,5.8 L17,-0.8 C17,-1.4627417 17.5372583,-2 18.2,-2 Z" id="Rectangle-6" fill="#90FFB5" mask="url(#mask-2)"></path>
                    </g>
                    <text id="G" font-family="Helvetica-Bold, Helvetica" font-size="12" font-weight="bold" fill="#FFFFFF">
                        <tspan x="7.33300781" y="18">G</tspan>
                    </text>
                </g>
            </g>
        </g>
    </g>
</svg>